<?xml version="1.0" encoding="UTF-8"?>
<svg version="1.1" xmlns="http://www.w3.org/2000/svg" width="121" height="121">
<path d="M0 0 C0.495 1.485 0.495 1.485 1 3 C2.65 3 4.3 3 6 3 C6 2.01 6 1.02 6 0 C19.28105796 0.26322818 31.61059394 4.54086611 42 13 C43.41386341 15.31481108 44.13750379 17.41251137 45 20 C46.12921875 20.11408203 46.12921875 20.11408203 47.28125 20.23046875 C52.393148 21.67737091 54.46152788 26.60850132 57 31 C61.22906645 39.56913203 64.49578234 48.33224429 64 58 C63.01 58 62.02 58 61 58 C61 59.65 61 61.3 61 63 C62.485 63.495 62.485 63.495 64 64 C63.71667119 76.85282501 59.03278063 89.94955602 50.48828125 99.73046875 C48.46679718 101.4548318 46.5908257 101.64988842 44 102 C44 102.70125 44 103.4025 44 104.125 C41.95142432 110.01465507 35.5087328 112.85848866 30.25 115.6875 C22.63124178 119.32666032 14.47125548 121.5775856 6 121 C6 120.01 6 119.02 6 118 C4.35 118 2.7 118 1 118 C1 118.99 1 119.98 1 121 C-4.6431664 121.20714626 -9.41161749 120.68533468 -14.8125 118.9375 C-15.50174561 118.71924561 -16.19099121 118.50099121 -16.90112305 118.27612305 C-23.2473086 116.14202715 -28.58831457 112.92767663 -34 109 C-35.485 108.01 -35.485 108.01 -37 107 C-37.1875 104.375 -37.1875 104.375 -37 102 C-39.94729537 100.84188612 -39.94729537 100.84188612 -43 101 C-44.64726684 98.92195619 -46.04512264 96.92842959 -47.4375 94.6875 C-47.83710937 94.05465088 -48.23671875 93.42180176 -48.6484375 92.76977539 C-54.45717426 83.30320092 -57.18739295 74.0561843 -57 63 C-56.01 63 -55.02 63 -54 63 C-54 61.35 -54 59.7 -54 58 C-54.99 58 -55.98 58 -57 58 C-57.8575664 45.42235944 -52.67586059 32.58517188 -44.9375 22.8125 C-42.90494237 20.60296506 -42.07558666 20.02464782 -39.125 19.0625 C-38.42375 19.041875 -37.7225 19.02125 -37 19 C-37 18.29875 -37 17.5975 -37 16.875 C-35.07343317 11.33612036 -29.87301811 8.991875 -24.89453125 6.35546875 C-16.71106952 2.41244088 -9.18074746 -0.47080756 0 0 Z " fill="#FDF7F7" transform="translate(57,0)"/>
<path d="M0 0 C7.92218209 6.11655655 13.61719697 12.82480135 17.25 22.25 C17.25 23.24 17.25 24.23 17.25 25.25 C9.66 24.92 2.07 24.59 -5.75 24.25 C-6.018125 25.920625 -6.28625 27.59125 -6.5625 29.3125 C-7.40302124 34.3496237 -8.32321384 39.36541034 -9.3125 44.375 C-9.56128906 45.63570312 -9.81007812 46.89640625 -10.06640625 48.1953125 C-10.75 51.25 -10.75 51.25 -11.75 53.25 C-8.45 53.25 -5.15 53.25 -1.75 53.25 C-1.42 49.62 -1.09 45.99 -0.75 42.25 C0.57 42.25 1.89 42.25 3.25 42.25 C3.50652344 42.96027344 3.76304688 43.67054687 4.02734375 44.40234375 C5.23088346 47.29164951 6.37509048 49.73727879 8.25 52.25 C11.3018364 53.40847301 14.01483715 53.48964169 17.25 53.25 C14.41649476 64.66497826 6.88125997 73.56949388 -3.09375 79.6875 C-15.75183126 86.41711282 -28.07214533 88.08340137 -41.90625 84.21484375 C-55.03783691 79.75948391 -64.27737308 70.06744896 -70.90625 58.17578125 C-71.75 56.25 -71.75 56.25 -71.75 53.25 C-70.96625 53.1675 -70.1825 53.085 -69.375 53 C-68.50875 52.7525 -67.6425 52.505 -66.75 52.25 C-66.09 50.93 -65.43 49.61 -64.75 48.25 C-61.45 48.25 -58.15 48.25 -54.75 48.25 C-54.75 49.9 -54.75 51.55 -54.75 53.25 C-51.78 53.25 -48.81 53.25 -45.75 53.25 C-47.07 43.68 -48.39 34.11 -49.75 24.25 C-59.04051425 24.16658463 -59.04051425 24.16658463 -62.06274414 27.38305664 C-62.54864014 28.29949951 -63.03453613 29.21594238 -63.53515625 30.16015625 C-64.35983398 31.64418945 -64.35983398 31.64418945 -65.20117188 33.15820312 C-65.73291016 34.19912109 -66.26464844 35.24003906 -66.8125 36.3125 C-67.92651498 38.36690078 -69.04229604 40.42034524 -70.16015625 42.47265625 C-70.63590088 43.38797119 -71.11164551 44.30328613 -71.60180664 45.24633789 C-71.98071045 45.90754639 -72.35961426 46.56875488 -72.75 47.25 C-73.08 47.25 -73.41 47.25 -73.75 47.25 C-74.42693863 32.02640244 -73.85057755 20.43931323 -63.6171875 8.2734375 C-46.94034916 -9.79895216 -20.60954065 -14.1290778 0 0 Z " fill="#ED3439" transform="translate(87.75,21.75)"/>
<path d="M0 0 C0.495 1.485 0.495 1.485 1 3 C2.65 3 4.3 3 6 3 C6 2.01 6 1.02 6 0 C19.28105796 0.26322818 31.61059394 4.54086611 42 13 C43.41386341 15.31481108 44.13750379 17.41251137 45 20 C46.12921875 20.11408203 46.12921875 20.11408203 47.28125 20.23046875 C52.393148 21.67737091 54.46152788 26.60850132 57 31 C61.22906645 39.56913203 64.49578234 48.33224429 64 58 C63.01 58 62.02 58 61 58 C61 59.65 61 61.3 61 63 C62.485 63.495 62.485 63.495 64 64 C63.71667119 76.85282501 59.03278063 89.94955602 50.48828125 99.73046875 C48.46679718 101.4548318 46.5908257 101.64988842 44 102 C44 102.70125 44 103.4025 44 104.125 C41.95142432 110.01465507 35.5087328 112.85848866 30.25 115.6875 C22.63124178 119.32666032 14.47125548 121.5775856 6 121 C6 120.01 6 119.02 6 118 C4.35 118 2.7 118 1 118 C1 118.99 1 119.98 1 121 C-4.6431664 121.20714626 -9.41161749 120.68533468 -14.8125 118.9375 C-15.50174561 118.71924561 -16.19099121 118.50099121 -16.90112305 118.27612305 C-23.2473086 116.14202715 -28.58831457 112.92767663 -34 109 C-35.485 108.01 -35.485 108.01 -37 107 C-37.1875 104.375 -37.1875 104.375 -37 102 C-39.94729537 100.84188612 -39.94729537 100.84188612 -43 101 C-44.64726684 98.92195619 -46.04512264 96.92842959 -47.4375 94.6875 C-47.83710937 94.05465088 -48.23671875 93.42180176 -48.6484375 92.76977539 C-54.45717426 83.30320092 -57.18739295 74.0561843 -57 63 C-56.01 63 -55.02 63 -54 63 C-54 61.35 -54 59.7 -54 58 C-54.99 58 -55.98 58 -57 58 C-57.8575664 45.42235944 -52.67586059 32.58517188 -44.9375 22.8125 C-42.90494237 20.60296506 -42.07558666 20.02464782 -39.125 19.0625 C-38.42375 19.041875 -37.7225 19.02125 -37 19 C-37 18.29875 -37 17.5975 -37 16.875 C-35.07343317 11.33612036 -29.87301811 8.991875 -24.89453125 6.35546875 C-16.71106952 2.41244088 -9.18074746 -0.47080756 0 0 Z M-41.00390625 26.34375 C-50.54228886 39.03412513 -53.42986659 53.47887672 -52 69 C-49.43694336 83.93643352 -41.59488732 96.87320394 -29.43359375 105.90625 C-23.29147827 110.030117 -17.07531879 112.8670838 -10 115 C-9.38125 115.19464844 -8.7625 115.38929687 -8.125 115.58984375 C8.21800143 118.74428337 23.76387231 113.96744189 37.296875 105.02734375 C46.44281922 98.16788558 51.58524636 89.30109182 56 79 C56.36222656 78.16855469 56.72445312 77.33710937 57.09765625 76.48046875 C61.96184941 63.20009022 59.31145897 48.56684682 53.6796875 36.0703125 C45.71692677 20.36235281 33.16879166 11.75595804 16.765625 6.25 C-5.01404609 0.35475068 -26.81054848 9.74333156 -41.00390625 26.34375 Z " fill="#ED353A" transform="translate(57,0)"/>
<path d="M0 0 C1.6171875 0.92578125 1.6171875 0.92578125 3.9296875 3.30078125 C4.8046875 6.55078125 4.8046875 6.55078125 4.9296875 9.30078125 C3.6509375 9.36265625 2.3721875 9.42453125 1.0546875 9.48828125 C0.33539063 9.52308594 -0.38390625 9.55789062 -1.125 9.59375 C-1.76695313 9.49707031 -2.40890625 9.40039062 -3.0703125 9.30078125 C-3.7303125 8.31078125 -4.3903125 7.32078125 -5.0703125 6.30078125 C-7.48375917 5.63334248 -7.48375917 5.63334248 -10.0703125 6.30078125 C-12.72223762 8.52266446 -13.94931681 10.1522825 -14.31640625 13.63671875 C-14.3199329 15.87261711 -14.24510157 18.07222061 -14.0703125 20.30078125 C-11.77736762 21.16052926 -11.77736762 21.16052926 -9.0703125 21.30078125 C-8.4721875 20.66140625 -7.8740625 20.02203125 -7.2578125 19.36328125 C-4.72993142 16.97985052 -4.14811346 17.02153871 -0.8203125 17.05078125 C0.4171875 17.13328125 1.6546875 17.21578125 2.9296875 17.30078125 C3.2596875 17.96078125 3.5896875 18.62078125 3.9296875 19.30078125 C0.96881758 24.72904278 -2.16477506 27.33965531 -8.0703125 29.30078125 C-13.29639831 29.93151574 -16.68163822 29.2265641 -21.0703125 26.30078125 C-24.40185581 22.53087698 -25.75188329 19.48905623 -25.44921875 14.3828125 C-24.49121992 9.11875706 -22.11898122 4.81490691 -18.0703125 1.30078125 C-12.79393226 -2.06105929 -5.8158286 -1.96421381 0 0 Z " fill="#FDF4F5" transform="translate(70.0703125,46.69921875)"/>
<path d="M0 0 C0.05406122 1.93719378 0.09282025 3.87481921 0.125 5.8125 C0.14820312 6.89144531 0.17140625 7.97039062 0.1953125 9.08203125 C0 12 0 12 -2 15 C-2.84114171 13.56705502 -3.67265687 12.12845595 -4.5 10.6875 C-4.9640625 9.88699219 -5.428125 9.08648437 -5.90625 8.26171875 C-7 6 -7 6 -7 3 C-1.125 0 -1.125 0 0 0 Z " fill="#EE3F43" transform="translate(107,59)"/>
<path d="M0 0 C2.64 0 5.28 0 8 0 C8.625 1.875 8.625 1.875 9 4 C7 6 7 6 5.0546875 6.1953125 C3.03645833 6.13020833 1.01822917 6.06510417 -1 6 C-0.67 4.02 -0.34 2.04 0 0 Z " fill="#EE4044" transform="translate(90,52)"/>
<path d="M0 0 C0.33 0 0.66 0 1 0 C1 3.3 1 6.6 1 10 C-0.65 10 -2.3 10 -4 10 C-2.8905928 6.51329166 -1.73662334 3.22515763 0 0 Z " fill="#ED3C40" transform="translate(31,54)"/>
</svg>
