<svg width="32" height="24" viewBox="0 0 32 24" fill="none" xmlns="http://www.w3.org/2000/svg">
<path fill-rule="evenodd" clip-rule="evenodd" d="M0 0V24H32V0H0Z" fill="#2E42A5"/>
<mask id="mask0_741_1121" style="mask-type:luminance" maskUnits="userSpaceOnUse" x="0" y="0" width="32" height="24">
<path fill-rule="evenodd" clip-rule="evenodd" d="M0 0V24H32V0H0Z" fill="white"/>
</mask>
<g mask="url(#mask0_741_1121)">
<path d="M-3.56348 22.2856L3.47821 25.2637L32.1595 3.23805L35.8738 -1.18743L28.3437 -2.18279L16.6453 7.30869L7.22931 13.7037L-3.56348 22.2856Z" fill="white"/>
<path d="M-2.59961 24.3724L0.987806 26.1006L34.5398 -1.59835H29.5027L-2.59961 24.3724Z" fill="#F50100"/>
<path d="M35.5635 22.2856L28.5218 25.2637L-0.159451 3.23805L-3.87378 -1.18743L3.65629 -2.18279L15.3547 7.30869L24.7707 13.7037L35.5635 22.2856Z" fill="white"/>
<path d="M35.3232 23.7835L31.7358 25.5117L17.449 13.6524L13.2133 12.3273L-4.23114 -1.17185H0.806004L18.2406 12.0069L22.8717 13.5958L35.3232 23.7835Z" fill="#F50100"/>
<mask id="path-7-inside-1_741_1121" fill="white">
<path d="M19.7773 8H34.0273V16H19.7773V26H12.2217V16H-1.97266V8H12.2217V-2H19.7773V8Z"/>
</mask>
<path d="M19.7773 8H34.0273V16H19.7773V26H12.2217V16H-1.97266V8H12.2217V-2H19.7773V8Z" fill="#F50100"/>
<path d="M19.7773 8H17.7773V10H19.7773V8ZM34.0273 8H36.0273V6H34.0273V8ZM34.0273 16V18H36.0273V16H34.0273ZM19.7773 16V14H17.7773V16H19.7773ZM19.7773 26V28H21.7773V26H19.7773ZM12.2217 26H10.2217V28H12.2217V26ZM12.2217 16H14.2217V14H12.2217V16ZM-1.97266 16H-3.97266V18H-1.97266V16ZM-1.97266 8V6H-3.97266V8H-1.97266ZM12.2217 8V10H14.2217V8H12.2217ZM12.2217 -2V-4H10.2217V-2H12.2217ZM19.7773 -2H21.7773V-4H19.7773V-2ZM19.7773 8V10H34.0273V8V6H19.7773V8ZM34.0273 8H32.0273V16H34.0273H36.0273V8H34.0273ZM34.0273 16V14H19.7773V16V18H34.0273V16ZM19.7773 16H17.7773V26H19.7773H21.7773V16H19.7773ZM19.7773 26V24H12.2217V26V28H19.7773V26ZM12.2217 26H14.2217V16H12.2217H10.2217V26H12.2217ZM12.2217 16V14H-1.97266V16V18H12.2217V16ZM-1.97266 16H0.0273438V8H-1.97266H-3.97266V16H-1.97266ZM-1.97266 8V10H12.2217V8V6H-1.97266V8ZM12.2217 8H14.2217V-2H12.2217H10.2217V8H12.2217ZM12.2217 -2V0H19.7773V-2V-4H12.2217V-2ZM19.7773 -2H17.7773V8H19.7773H21.7773V-2H19.7773Z" fill="white" mask="url(#path-7-inside-1_741_1121)"/>
</g>
</svg>
